<svg xmlns="http://www.w3.org/2000/svg" xmlns:xlink="http://www.w3.org/1999/xlink" width="250" zoomAndPan="magnify" viewBox="0 0 187.5 112.499997" height="150" preserveAspectRatio="xMidYMid meet" version="1.0"><defs><g/></defs><g fill="#ffd700" fill-opacity="1"><g transform="translate(6.990286, 70.561389)"><g><path d="M 13.234375 -6.765625 L 18.359375 -23.609375 L 26.0625 -23.609375 L 17.6875 0 L 8.75 0 L 0.375 -23.609375 L 8.125 -23.609375 Z M 13.234375 -6.765625 "/></g></g></g><g fill="#ffd700" fill-opacity="1"><g transform="translate(33.46539, 70.561389)"><g><path d="M 16.578125 0 L 12.046875 -6.5625 L 8.25 0 L 0.421875 0 L 8.203125 -12.046875 L 0.21875 -23.609375 L 8.328125 -23.609375 L 12.859375 -17.09375 L 16.671875 -23.609375 L 24.484375 -23.609375 L 16.578125 -11.71875 L 24.703125 0 Z M 16.578125 0 "/></g></g></g><g fill="#ffd700" fill-opacity="1"><g transform="translate(58.33338, 70.561389)"><g><path d="M 17 -23.859375 C 19.769531 -23.859375 21.976562 -22.960938 23.625 -21.171875 C 25.269531 -19.378906 26.09375 -16.914062 26.09375 -13.78125 L 26.09375 0 L 18.90625 0 L 18.90625 -12.8125 C 18.90625 -14.394531 18.492188 -15.625 17.671875 -16.5 C 16.859375 -17.375 15.757812 -17.8125 14.375 -17.8125 C 13 -17.8125 11.898438 -17.375 11.078125 -16.5 C 10.265625 -15.625 9.859375 -14.394531 9.859375 -12.8125 L 9.859375 0 L 2.625 0 L 2.625 -23.609375 L 9.859375 -23.609375 L 9.859375 -20.46875 C 10.585938 -21.507812 11.570312 -22.332031 12.8125 -22.9375 C 14.050781 -23.550781 15.445312 -23.859375 17 -23.859375 Z M 17 -23.859375 "/></g></g></g><g fill="#ffffff" fill-opacity="1"><g transform="translate(86.838524, 70.561389)"><g><path d="M 6 0.34375 C 4.738281 0.34375 3.703125 -0.03125 2.890625 -0.78125 C 2.085938 -1.53125 1.6875 -2.453125 1.6875 -3.546875 C 1.6875 -4.679688 2.085938 -5.628906 2.890625 -6.390625 C 3.703125 -7.148438 4.738281 -7.53125 6 -7.53125 C 7.25 -7.53125 8.273438 -7.148438 9.078125 -6.390625 C 9.878906 -5.628906 10.28125 -4.679688 10.28125 -3.546875 C 10.28125 -2.453125 9.878906 -1.53125 9.078125 -0.78125 C 8.273438 -0.03125 7.25 0.34375 6 0.34375 Z M 6 0.34375 "/></g></g></g><g fill="#ffffff" fill-opacity="1"><g transform="translate(98.765009, 70.561389)"><g><path d="M 1.1875 -11.84375 C 1.1875 -14.269531 1.644531 -16.398438 2.5625 -18.234375 C 3.476562 -20.066406 4.722656 -21.472656 6.296875 -22.453125 C 7.878906 -23.441406 9.644531 -23.9375 11.59375 -23.9375 C 13.144531 -23.9375 14.5625 -23.613281 15.84375 -22.96875 C 17.125 -22.320312 18.128906 -21.445312 18.859375 -20.34375 L 18.859375 -31.296875 L 26.09375 -31.296875 L 26.09375 0 L 18.859375 0 L 18.859375 -3.390625 C 18.179688 -2.253906 17.210938 -1.347656 15.953125 -0.671875 C 14.703125 0.00390625 13.25 0.34375 11.59375 0.34375 C 9.644531 0.34375 7.878906 -0.15625 6.296875 -1.15625 C 4.722656 -2.164062 3.476562 -3.59375 2.5625 -5.4375 C 1.644531 -7.28125 1.1875 -9.414062 1.1875 -11.84375 Z M 18.859375 -11.796875 C 18.859375 -13.609375 18.359375 -15.035156 17.359375 -16.078125 C 16.359375 -17.117188 15.140625 -17.640625 13.703125 -17.640625 C 12.265625 -17.640625 11.046875 -17.125 10.046875 -16.09375 C 9.046875 -15.0625 8.546875 -13.644531 8.546875 -11.84375 C 8.546875 -10.039062 9.046875 -8.609375 10.046875 -7.546875 C 11.046875 -6.492188 12.265625 -5.96875 13.703125 -5.96875 C 15.140625 -5.96875 16.359375 -6.488281 17.359375 -7.53125 C 18.359375 -8.570312 18.859375 -9.992188 18.859375 -11.796875 Z M 18.859375 -11.796875 "/></g></g></g><g fill="#ffffff" fill-opacity="1"><g transform="translate(127.481616, 70.561389)"><g><path d="M 24.875 -12.1875 C 24.875 -11.507812 24.832031 -10.800781 24.75 -10.0625 L 8.375 -10.0625 C 8.488281 -8.601562 8.960938 -7.484375 9.796875 -6.703125 C 10.628906 -5.929688 11.648438 -5.546875 12.859375 -5.546875 C 14.660156 -5.546875 15.914062 -6.304688 16.625 -7.828125 L 24.328125 -7.828125 C 23.929688 -6.273438 23.21875 -4.878906 22.1875 -3.640625 C 21.15625 -2.398438 19.863281 -1.425781 18.3125 -0.71875 C 16.757812 -0.0078125 15.023438 0.34375 13.109375 0.34375 C 10.796875 0.34375 8.738281 -0.148438 6.9375 -1.140625 C 5.132812 -2.128906 3.722656 -3.539062 2.703125 -5.375 C 1.691406 -7.207031 1.1875 -9.347656 1.1875 -11.796875 C 1.1875 -14.253906 1.6875 -16.398438 2.6875 -18.234375 C 3.6875 -20.066406 5.085938 -21.472656 6.890625 -22.453125 C 8.691406 -23.441406 10.765625 -23.9375 13.109375 -23.9375 C 15.390625 -23.9375 17.421875 -23.457031 19.203125 -22.5 C 20.984375 -21.539062 22.375 -20.171875 23.375 -18.390625 C 24.375 -16.617188 24.875 -14.550781 24.875 -12.1875 Z M 17.46875 -14.078125 C 17.46875 -15.328125 17.046875 -16.316406 16.203125 -17.046875 C 15.359375 -17.773438 14.300781 -18.140625 13.03125 -18.140625 C 11.8125 -18.140625 10.785156 -17.785156 9.953125 -17.078125 C 9.128906 -16.378906 8.617188 -15.378906 8.421875 -14.078125 Z M 17.46875 -14.078125 "/></g></g></g><g fill="#ffffff" fill-opacity="1"><g transform="translate(153.533795, 70.561389)"><g><path d="M 13.234375 -6.765625 L 18.359375 -23.609375 L 26.0625 -23.609375 L 17.6875 0 L 8.75 0 L 0.375 -23.609375 L 8.125 -23.609375 Z M 13.234375 -6.765625 "/></g></g></g></svg>